<svg xmlns="http://www.w3.org/2000/svg" viewBox="0 0 128 128"><defs><style>.cls-1{isolation:isolate;}.cls-2{mix-blend-mode:multiply;}.cls-3{fill:#3c71bc;}.cls-4{fill:#94bdf7;}.cls-5{fill:#619bf7;}</style></defs><title>blue-fish</title><g class="cls-1"><g id="icons" class="cls-2"><path class="cls-3" d="M105,61V87a1.49,1.49,0,0,1-.8,1.32,1.57,1.57,0,0,1-.7.17,1.51,1.51,0,0,1-.86-.27c-1.34-.93-2.77-1.89-4.21-2.85C96.18,83.88,94,82.4,92,81c3.15-3,5-5.67,5-7s-1.8-4-5-7c1.92-1.41,4.14-2.88,6.39-4.39,1.44-1,2.87-1.92,4.21-2.85a1.51,1.51,0,0,1,1.56-.1A1.49,1.49,0,0,1,105,61Z"/><path class="cls-4" d="M73,39.3a.5.5,0,0,0-.48-.3C53.39,40,46.11,56.14,46,56.3a.5.5,0,0,0,.46.7h21a.5.5,0,0,0,.5-.55c-1-10.62,4.8-16.54,4.86-16.6A.5.5,0,0,0,73,39.3Z"/><path class="cls-5" d="M97,74c0,1.32-1.8,4-5,7a56,56,0,0,1-7.16,5.77A31.49,31.49,0,0,0,76.8,77.1a.5.5,0,0,0-.54,0C67.48,81.94,56.61,82,56.5,82a.5.5,0,0,0-.42.23.48.48,0,0,0,0,.48c2.53,5.48,8.62,9,17.64,10.16h0A49.66,49.66,0,0,1,54.5,97,39.91,39.91,0,0,1,44,95.69c3-5.46,5-13.16,5-21.69s-1.9-16.23-5-21.69A39.91,39.91,0,0,1,54.5,51C70.44,51,84.8,60,92,67,95.2,70,97,72.68,97,74Z"/><path class="cls-4" d="M44,52.31C28.29,56.52,23,69.76,23,74s5.29,17.48,21,21.69C47.1,90.23,49,82.53,49,74S47.1,57.77,44,52.31Z"/><circle cx="39" cy="67" r="4"/><path class="cls-3" d="M86.91,92.79a.53.53,0,0,1-.35.21,55.16,55.16,0,0,1-5.93.3,54.63,54.63,0,0,1-6.91-.43h0c-9-1.17-15.11-4.68-17.64-10.16a.48.48,0,0,1,0-.48A.5.5,0,0,1,56.5,82c.11,0,11-.06,19.76-4.94a.5.5,0,0,1,.54,0,31.49,31.49,0,0,1,8.09,9.66A23.15,23.15,0,0,1,87,92.39.52.52,0,0,1,86.91,92.79Z"/><circle class="cls-5" cx="29" cy="48" r="2"/><circle class="cls-5" cx="35" cy="40" r="2"/><circle class="cls-5" cx="28" cy="34" r="3"/></g></g></svg>